<?xml version="1.0" encoding="UTF-8" standalone="yes"?>
<svg xmlns="http://www.w3.org/2000/svg" width="107.947265625" height="17.19384765625" viewBox="0 0 107.947265625 17.19384765625" fill="#FFFFFF">
  <path d="M10.80 16.97L7.52 16.97Q7.30 16.53 7.20 15.88L7.20 15.88Q6.02 17.19 4.13 17.19L4.13 17.19Q2.35 17.19 1.17 16.16Q0 15.13 0 13.56L0 13.56Q0 11.62 1.43 10.59Q2.86 9.56 5.57 9.55L5.57 9.55L7.06 9.55L7.06 8.85Q7.06 8.01 6.63 7.50Q6.20 7.00 5.27 7.00L5.27 7.00Q4.45 7.00 3.98 7.39Q3.52 7.78 3.52 8.47L3.52 8.47L0.27 8.47Q0.27 7.41 0.92 6.51Q1.57 5.62 2.76 5.10Q3.95 4.59 5.44 4.59L5.44 4.59Q7.68 4.59 9.00 5.72Q10.32 6.85 10.32 8.89L10.32 8.89L10.32 14.16Q10.33 15.89 10.80 16.78L10.80 16.78L10.80 16.97ZM4.84 14.71L4.84 14.71Q5.56 14.71 6.17 14.39Q6.77 14.07 7.06 13.53L7.06 13.53L7.06 11.44L5.85 11.44Q3.41 11.44 3.26 13.13L3.26 13.13L3.25 13.32Q3.25 13.93 3.67 14.32Q4.10 14.71 4.84 14.71ZM19.69 4.74L19.64 7.86Q18.98 7.77 18.47 7.77L18.47 7.77Q16.63 7.77 16.06 9.02L16.06 9.02L16.06 16.97L12.81 16.97L12.81 4.82L15.88 4.82L15.97 6.27Q16.95 4.59 18.68 4.59L18.68 4.59Q19.22 4.59 19.69 4.74L19.69 4.74ZM28.57 16.97L28.48 15.73Q27.28 17.19 25.16 17.19L25.16 17.19Q23.20 17.19 22.17 16.07Q21.15 14.95 21.12 12.78L21.12 12.78L21.12 4.82L24.37 4.82L24.37 12.67Q24.37 14.57 26.10 14.57L26.10 14.57Q27.75 14.57 28.37 13.42L28.37 13.42L28.37 4.82L31.63 4.82L31.63 16.97L28.57 16.97ZM37.50 4.82L37.50 16.97L34.24 16.97L34.24 4.82L37.50 4.82ZM34.05 1.67L34.05 1.67Q34.05 0.94 34.54 0.47Q35.03 0 35.87 0L35.87 0Q36.70 0 37.20 0.47Q37.69 0.94 37.69 1.67L37.69 1.67Q37.69 2.41 37.19 2.89Q36.69 3.36 35.87 3.36Q35.05 3.36 34.55 2.89Q34.05 2.41 34.05 1.67ZM49.66 6.74L43.90 14.35L49.84 14.35L49.84 16.97L39.76 16.97L39.76 14.99L45.47 7.45L39.92 7.45L39.92 4.82L49.66 4.82L49.66 6.74ZM62.19 16.97L58.92 16.97Q58.69 16.53 58.59 15.88L58.59 15.88Q57.41 17.19 55.52 17.19L55.52 17.19Q53.74 17.19 52.56 16.16Q51.39 15.13 51.39 13.56L51.39 13.56Q51.39 11.62 52.82 10.59Q54.25 9.56 56.96 9.55L56.96 9.55L58.45 9.55L58.45 8.85Q58.45 8.01 58.02 7.50Q57.59 7.00 56.66 7.00L56.66 7.00Q55.84 7.00 55.37 7.39Q54.91 7.78 54.91 8.47L54.91 8.47L51.66 8.47Q51.66 7.41 52.31 6.51Q52.96 5.62 54.15 5.10Q55.34 4.59 56.83 4.59L56.83 4.59Q59.07 4.59 60.39 5.72Q61.71 6.85 61.71 8.89L61.71 8.89L61.71 14.16Q61.72 15.89 62.19 16.78L62.19 16.78L62.19 16.97ZM56.23 14.71L56.23 14.71Q56.95 14.71 57.56 14.39Q58.16 14.07 58.45 13.53L58.45 13.53L58.45 11.44L57.24 11.44Q54.80 11.44 54.65 13.13L54.65 13.13L54.64 13.32Q54.64 13.93 55.06 14.32Q55.49 14.71 56.23 14.71ZM71.08 4.74L71.03 7.86Q70.37 7.77 69.86 7.77L69.86 7.77Q68.02 7.77 67.45 9.02L67.45 9.02L67.45 16.97L64.20 16.97L64.20 4.82L67.27 4.82L67.36 6.27Q68.34 4.59 70.07 4.59L70.07 4.59Q70.61 4.59 71.08 4.74L71.08 4.74ZM73.80 1.83L77.04 1.83L77.04 4.82L79.12 4.82L79.12 7.20L77.04 7.20L77.04 13.26Q77.04 13.94 77.30 14.23Q77.56 14.52 78.29 14.52L78.29 14.52Q78.83 14.52 79.24 14.44L79.24 14.44L79.24 16.90Q78.29 17.19 77.28 17.19L77.28 17.19Q73.86 17.19 73.80 13.75L73.80 13.75L73.80 7.20L72.02 7.20L72.02 4.82L73.80 4.82L73.80 1.83ZM86.21 16.97L81.14 16.97L81.14 0.62L86.17 0.62Q88.33 0.62 90.03 1.59Q91.73 2.56 92.69 4.35Q93.64 6.14 93.64 8.42L93.64 8.42L93.64 9.18Q93.64 11.46 92.70 13.23Q91.76 15.00 90.06 15.98Q88.35 16.96 86.21 16.97L86.21 16.97ZM86.17 3.35L84.51 3.35L84.51 14.26L86.14 14.26Q88.11 14.26 89.16 12.97Q90.20 11.68 90.23 9.28L90.23 9.28L90.23 8.41Q90.23 5.92 89.19 4.63Q88.16 3.35 86.17 3.35L86.17 3.35ZM104.57 12.68L104.57 12.68Q104.57 11.72 103.89 11.21Q103.22 10.70 101.47 10.14Q99.72 9.57 98.69 9.02L98.69 9.02Q95.91 7.51 95.91 4.96L95.91 4.96Q95.91 3.64 96.66 2.60Q97.40 1.56 98.80 0.98Q100.20 0.39 101.94 0.39L101.94 0.39Q103.69 0.39 105.06 1.03Q106.43 1.66 107.19 2.82Q107.95 3.98 107.95 5.45L107.95 5.45L104.58 5.45Q104.58 4.32 103.87 3.70Q103.16 3.08 101.88 3.08L101.88 3.08Q100.65 3.08 99.96 3.60Q99.28 4.12 99.28 4.98L99.28 4.98Q99.28 5.77 100.08 6.31Q100.88 6.85 102.44 7.32L102.44 7.32Q105.32 8.19 106.63 9.47Q107.95 10.75 107.95 12.66L107.95 12.66Q107.95 14.78 106.34 15.99Q104.74 17.19 102.02 17.19L102.02 17.19Q100.13 17.19 98.58 16.50Q97.03 15.81 96.22 14.61Q95.40 13.41 95.40 11.83L95.40 11.83L98.78 11.83Q98.78 14.53 102.02 14.53L102.02 14.53Q103.22 14.53 103.89 14.04Q104.57 13.56 104.57 12.68Z"/>
</svg>